<?xml version="1.0" standalone="no"?><!DOCTYPE svg PUBLIC "-//W3C//DTD SVG 1.1//EN" "http://www.w3.org/Graphics/SVG/1.1/DTD/svg11.dtd"><svg t="1536138684192" class="icon" style="" viewBox="0 0 1024 1024" version="1.1" xmlns="http://www.w3.org/2000/svg" p-id="5875" xmlns:xlink="http://www.w3.org/1999/xlink" width="200" height="200"><defs><style type="text/css"></style></defs><path d="M940.032 1020.928H189.952c-14.336 0-25.6-11.264-25.6-25.6v-188.928c0-14.336 11.264-25.6 25.6-25.6s25.6 11.264 25.6 25.6v163.328h698.88V61.44H215.04v147.456c0 14.336-11.264 25.6-25.6 25.6s-25.6-11.264-25.6-25.6V35.84c0-14.336 11.264-25.6 25.6-25.6h750.592c14.336 0 25.6 11.264 25.6 25.6v959.488c0 14.336-11.264 25.6-25.6 25.6z" p-id="5876"></path><path d="M257.024 371.2H110.08c-14.336 0-25.6-11.264-25.6-25.6s11.264-25.6 25.6-25.6h146.944c14.336 0 25.6 11.264 25.6 25.6s-11.264 25.6-25.6 25.6zM257.024 538.624H110.08c-14.336 0-25.6-11.264-25.6-25.6s11.264-25.6 25.6-25.6h146.944c14.336 0 25.6 11.264 25.6 25.6s-11.264 25.6-25.6 25.6zM257.024 696.32H110.08c-14.336 0-25.6-11.264-25.6-25.6s11.264-25.6 25.6-25.6h146.944c14.336 0 25.6 11.264 25.6 25.6s-11.264 25.6-25.6 25.6zM568.32 758.272l-18.432-19.456C542.72 731.136 384 560.128 384 418.304c0-101.888 82.944-184.32 184.32-184.32s184.32 82.944 184.32 184.32c0 146.432-159.232 313.344-165.888 320.512l-18.432 19.456z m0-473.088c-73.728 0-133.12 59.904-133.12 133.12 0 95.232 93.184 216.064 133.632 264.192 40.448-47.104 133.12-165.376 133.12-264.192-0.512-73.728-59.904-133.12-133.632-133.12z" p-id="5877"></path><path d="M566.784 427.008m-43.52 0a43.52 43.52 0 1 0 87.04 0 43.52 43.52 0 1 0-87.04 0Z" p-id="5878"></path></svg>