<?xml version="1.0" standalone="no"?><!DOCTYPE svg PUBLIC "-//W3C//DTD SVG 1.1//EN" "http://www.w3.org/Graphics/SVG/1.1/DTD/svg11.dtd"><svg t="1536634973250" class="icon" style="" viewBox="0 0 1024 1024" version="1.1" xmlns="http://www.w3.org/2000/svg" p-id="748" xmlns:xlink="http://www.w3.org/1999/xlink" width="200" height="200"><defs><style type="text/css"></style></defs><path d="M458.11484445 544.64663703l306.80557037 306.80557038c-39.68568889 40.41386667-86.04634075 71.96823703-139.08195557 94.42038518-53.03561482 22.45214815-108.98394075 33.7389037-167.7236148 33.73890372-78.27911111 0-150.49007408-19.29671111-216.6328889-57.89013334-66.14281482-38.47205925-118.57161482-90.7794963-157.04367407-157.04367408-38.59342222-66.14281482-57.89013333-138.35377778-57.89013333-216.63288888 0-78.15774815 19.29671111-150.36871111 57.89013333-216.6328889 38.47205925-66.02145185 90.7794963-118.45025185 157.04367407-157.04367408 66.02145185-38.47205925 138.23241482-57.89013333 216.6328889-57.89013332l0 428.16853332z m503.53493333-68.57007406L529.96171852 476.07656297 529.96171852 44.3885037c78.15774815 0 150.36871111 19.29671111 216.63288889 57.89013333 66.02145185 38.59342222 118.45025184 90.90085925 157.04367407 157.04367408 38.47205925 66.26417778 58.0114963 138.47514075 58.0114963 216.75425186z m-398.55597037 71.84687406L997.45185185 547.92343703c0 58.86103703-11.28675555 114.688-33.7389037 167.72361482-22.45214815 53.03561482-53.88515555 99.39626666-94.42038518 139.08195556L563.09380741 547.92343703z" p-id="749"></path></svg>