<?xml version="1.0" standalone="no"?><!DOCTYPE svg PUBLIC "-//W3C//DTD SVG 1.1//EN" "http://www.w3.org/Graphics/SVG/1.1/DTD/svg11.dtd"><svg t="1538192095212" class="icon" style="" viewBox="0 0 1027 1024" version="1.1" xmlns="http://www.w3.org/2000/svg" p-id="822" xmlns:xlink="http://www.w3.org/1999/xlink" width="200.5859375" height="200"><defs><style type="text/css"></style></defs><path d="M410.0672375 135.68a696.48 696.48 0 0 1 205.92 0c48 9.6 96 17.28 141.12 29.76a100.8 100.8 0 0 1 71.04 66.72q29.28 82.56 61.44 163.68c3.84 9.12 15.36 22.56 22.08 21.6a71.04 71.04 0 0 1 81.6 56.64 61.92 61.92 0 0 1 0 29.76l-54.72 14.88a483.84 483.84 0 0 1 6.72 57.6v265.92a75.84 75.84 0 0 1-16.32 44.16 449.28 449.28 0 0 1-153.6 2.88c-35.52-22.56-13.44-60.48-24.96-91.2H283.8272375c-9.12 32.64-14.4 87.36-24.96 91.2a456 456 0 0 1-157.44 0 85.92 85.92 0 0 1-17.28-50.88c-2.88-38.4-2.88-74.88-2.88-112.32 0-69.6 0-139.2 2.88-209.28L33.2672375 503.36a55.2 55.2 0 0 1 0-23.52c14.4-38.4 33.6-68.16 83.04-63.84 5.76 0 16.8-11.52 20.16-20.16a1292.16 1292.16 0 0 0 48-131.04 163.2 163.2 0 0 1 144-118.56c26.4-4.8 53.76-8.16 80.16-12.48zM197.9072375 432.32a1516.32 1516.32 0 0 0 627.84 0c-17.76-53.28-35.52-100.8-48-148.8a79.68 79.68 0 0 0-79.68-63.84c-99.36-4.32-199.2-7.68-298.56-8.64a424.8 424.8 0 0 0-96 14.88 54.72 54.72 0 0 0-35.04 24c-26.88 58.08-47.04 118.08-70.56 182.4z m40.8 226.56a234.24 234.24 0 0 0 51.36-2.88 48 48 0 0 0 31.2-23.52c2.4-7.2-8.64-24.96-18.24-29.28a1121.76 1121.76 0 0 0-120-48c-20.16-6.72-43.2-5.28-48 23.04-9.6 41.76 0 64.8 31.2 71.52 24.48 4.8 48 5.76 74.88 8.16z m553.44 0a684.96 684.96 0 0 0 75.36-9.6c36-8.16 28.32-37.44 27.36-62.88s-14.4-37.44-34.08-31.68a1040.64 1040.64 0 0 0-144 54.72c-21.12 10.08-13.44 37.92 10.56 43.2a540.48 540.48 0 0 0 64.8 5.76z" p-id="823"></path></svg>