<?xml version="1.0" standalone="no"?><!DOCTYPE svg PUBLIC "-//W3C//DTD SVG 1.1//EN" "http://www.w3.org/Graphics/SVG/1.1/DTD/svg11.dtd"><svg t="1536140163056" class="icon" style="" viewBox="0 0 1024 1024" version="1.1" xmlns="http://www.w3.org/2000/svg" p-id="2672" xmlns:xlink="http://www.w3.org/1999/xlink" width="200" height="200"><defs><style type="text/css"></style></defs><path d="M510.759 0C228.679 0 0 228.677 0 510.748c0 117.224 39.911 224.892 106.318 311.091l38.377-39.956C95.222 715.203 63.249 634.79 56.233 547.225l220.465 0c16.665 107.625 105.717 190.467 215.8 198.984l0 219.895c-83.913-3.356-161.914-29.321-228.223-72.049l-34.636 42.919c80.66 53.305 177.202 84.525 281.12 84.525 282.078 0 510.748-228.672 510.748-510.752C1021.507 228.677 792.836 0 510.759 0zM492.498 691.544c-79.903-8.023-144.782-66.934-160.493-144.319l160.493 0L492.498 691.544zM492.498 492.502l-162.33 0c8.664-85.968 76.465-153.749 162.33-162.437L492.498 492.502zM492.498 274.489c-116.356 8.884-209.087 101.64-217.971 218.013L55.647 492.502C65.055 255.277 255.29 65.046 492.498 55.623L492.498 274.489zM547.221 56.52C775.889 74.679 956.69 261.363 965.857 492.502L746.951 492.502c-8.415-110.212-92.072-199.151-199.73-215.836L547.221 56.52zM547.221 332.187c77.128 15.798 136.044 80.477 144.089 160.315L547.221 492.502 547.221 332.187zM547.221 547.225l142.252 0c-14.502 71.43-70.847 127.4-142.252 141.949L547.221 547.225zM547.221 965.024 547.221 744.544c101.593-15.785 181.821-95.668 197.559-197.318l220.158 0C947.26 769.922 769.872 947.353 547.221 965.024z" p-id="2673"></path></svg>