<?xml version="1.0" standalone="no"?><!DOCTYPE svg PUBLIC "-//W3C//DTD SVG 1.1//EN" "http://www.w3.org/Graphics/SVG/1.1/DTD/svg11.dtd"><svg t="1538557103217" class="icon" style="" viewBox="0 0 1024 1024" version="1.1" xmlns="http://www.w3.org/2000/svg" p-id="834" xmlns:xlink="http://www.w3.org/1999/xlink" width="200" height="200"><defs><style type="text/css"></style></defs><path d="M916.50275555 66.96201482l0 485.57321481c0 36.28752592-7.03905185 72.0896-21.11715555 107.89167407-14.0781037 35.55934815-31.67573333 67.23508148-52.4288 94.78447408-20.87442964 27.67075555-45.75383705 54.49197037-74.51685925 80.46364444-28.88438518 26.2144-55.58423703 47.81700741-79.85682964 65.05054815-24.39395555 17.23354075-50.00154075 33.61754074-76.3373037 48.90927408-26.57848889 15.4130963-45.38974816 25.72894815-56.55514074 31.19028147-11.16539259 5.46133333-20.02488889 9.70903703-26.82121482 12.62174816-5.09724445 2.54862222-10.43721482 3.88361482-16.50536296 3.88361481-5.82542222 0-11.40811852-1.33499259-16.50536297-3.88361481-6.79632592-2.91271111-15.65582222-7.16041482-26.82121481-12.62174816-11.16539259-5.46133333-29.97665185-15.89854815-56.55514074-31.19028147-26.57848889-15.4130963-52.06471111-31.7970963-76.3373037-48.90927408-24.39395555-17.23354075-50.97244445-38.95751113-79.85682964-65.05054815-28.88438518-26.2144-53.64242963-53.03561482-74.51685925-80.46364444-20.87442964-27.67075555-38.22933333-59.10376297-52.4288-94.78447408-14.0781037-35.55934815-21.11715555-71.48278518-21.11715556-107.89167407L108.22542222 66.96201482c0-10.92266667 4.00497778-20.51034075 12.01493333-28.39893334 8.00995555-8.00995555 17.3549037-12.01493332 28.39893334-12.01493333l728.17777778 0c10.92266667 0 20.51034075 4.00497778 28.39893333 12.01493331 7.28177778 8.00995555 11.28675555 17.59762963 11.28675555 28.39893336z m-121.36296296 485.45185185L795.13979259 147.9111111 512 147.9111111l0 718.71146668c50.1229037-26.57848889 95.0272-55.46287408 134.71288889-86.5317926 99.03217778-77.6722963 148.4269037-153.40278518 148.4269037-227.67691851z" p-id="835"></path></svg>