<?xml version="1.0" standalone="no"?><!DOCTYPE svg PUBLIC "-//W3C//DTD SVG 1.1//EN" "http://www.w3.org/Graphics/SVG/1.1/DTD/svg11.dtd"><svg t="1536741136754" class="icon" style="" viewBox="0 0 1024 1024" version="1.1" xmlns="http://www.w3.org/2000/svg" p-id="803" xmlns:xlink="http://www.w3.org/1999/xlink" width="200" height="200"><defs><style type="text/css"></style></defs><path d="M1021.55946667 892.44103111H2.32448V127.94993778h1019.23498667v764.49109333z m-63.64387556-63.70417778V191.65411555H65.99907555V828.73457778h891.91537778" p-id="804"></path><path d="M703.09660445 669.47413333c-87.96842667 0-159.26158222-71.29543111-159.26158223-159.26385778s71.29315555-159.26158222 159.26158223-159.26158222c87.90471111 0 159.26272 71.29315555 159.26272 159.26158222s-71.35800889 159.26385778-159.26272 159.26385778z m0-63.70531555c52.66090667 0 95.49596445-42.86350222 95.49596444-95.55854223 0-52.72462222-42.83392-95.58812445-95.49596444-95.58812444-52.72462222 0-95.5904 42.86464-95.5904 95.58812444 0 52.69504 42.86577778 95.55854222 95.5904 95.55854223" p-id="805"></path><path d="M511.95107555 860.59008h-63.69052444c0-140.78520889 114.05084445-254.82012445 254.83605334-254.82012445 140.72263111 0 254.75754667 114.03491555 254.75754666 254.82012445h-63.67232c0-105.44924445-85.73155555-191.11480889-191.08522666-191.11480889-105.44924445 0-191.14666667 85.66442667-191.14666667 191.11480889M161.55761778 478.32746667v-63.70531556h254.81784889v63.70531556H161.55761778zM161.55761778 605.76881778V542.0032H320.8192v63.76561778H161.55761778z" p-id="806"></path></svg>