<?xml version="1.0" standalone="no"?><!DOCTYPE svg PUBLIC "-//W3C//DTD SVG 1.1//EN" "http://www.w3.org/Graphics/SVG/1.1/DTD/svg11.dtd"><svg t="1531900597281" class="icon" style="" viewBox="0 0 1024 1024" version="1.1" xmlns="http://www.w3.org/2000/svg" p-id="5594" xmlns:xlink="http://www.w3.org/1999/xlink" width="200" height="200"><defs><style type="text/css"></style></defs><path d="M913.5 887.1c0-3.2-0.4-6.3-1.1-9.3C894 737.8 800.8 620.9 673.5 567c73.7-49.7 122.1-133 122.1-227.5 0-152.2-125.6-275.6-280.4-275.6-154.9 0-280.4 123.4-280.4 275.6 0 94.5 48.4 177.9 122.2 227.6-126 53.4-218.6 168.5-238.2 306.7-1.6 4.2-2.4 8.7-2.4 13.4l0.4 3.6c0 21.7 17.9 39.3 40 39.3s40-17.6 40-39.3v-0.5h1C216.5 740.2 342.4 622.8 498 614.5c5.8 0.3 11.5 0.5 17.4 0.5 5.9 0 11.7-0.2 17.4-0.5 155.6 8.2 281.6 125.7 300.2 275.8h1.1v0.5c0 21.7 17.9 39.3 40 39.3s40-17.6 40-39.3l-0.6-3.7zM515 536.3c-110.6 0-200.3-88.1-200.3-196.9S404.4 142.6 515 142.6c110.6 0 200.3 88.1 200.3 196.9S625.6 536.3 515 536.3z" p-id="5595" fill="#4CA2DF"></path></svg>