<?xml version="1.0" standalone="no"?><!DOCTYPE svg PUBLIC "-//W3C//DTD SVG 1.1//EN" "http://www.w3.org/Graphics/SVG/1.1/DTD/svg11.dtd"><svg t="1536139674257" class="icon" style="" viewBox="0 0 1024 1024" version="1.1" xmlns="http://www.w3.org/2000/svg" p-id="663" xmlns:xlink="http://www.w3.org/1999/xlink" width="200" height="200"><defs><style type="text/css"></style></defs><path d="M267.64401778 251.24750222c-54.13774222 12.48597333-98.64874667 73.86680889-108.65550223 118.56782223-10.00903111 44.70215111-13.34499555 100.07893333 5.05173334 176.70940444 5.90848 24.49635555 23.82734222 86.54392889 43.46197333 120.38030222s39.84042667 80.63431111 39.84042667 80.63431111l146.11342222-40.88945777s-2.09692445-82.82680889 7.91096889-109.03665778c10.00789333-26.21212445 25.06752-84.63701333 25.06752-135.43879112s-34.31310222-113.42279111-45.08330667-141.63512888c-11.62808889-30.21368889-27.35445333-47.65468445-48.51484444-61.57084445-25.54311111-16.87096889-65.19239111-7.72096-65.19239111-7.72096zM257.15939555 787.66535111l147.06801778-36.98119111c22.30158222 44.03427555 22.77831111 43.84312889 33.45294222 84.63701333 10.00903111 38.50695111 15.63306667 93.02471111-36.79004444 120.09358222-45.27217778 23.35061333-96.45624889-4.57386667-111.99146666-30.7859911-19.34791111-32.69290667-21.54040889-80.82545778-26.7832889-100.07893334-4.95616-18.39445333-4.95616-36.88448-4.95616-36.88448zM778.80433778 65.77038222c51.08622222 17.25098667 87.40067555 82.25336889 92.35683555 127.62225778 4.86172445 45.27445333 2.19249778 100.74567111-23.92291555 175.37479111-8.29212445 23.82848-32.40618667 83.97027555-54.99448889 115.89973334-22.58944 31.92945778-47.18136889 76.63160889-47.18136889 76.63160888l-136.96227555-53.56657778s10.96021333-82.25336889 4.09827555-109.22666666c-6.86307555-26.97443555-15.1552-86.44835555-9.62673778-137.05898667 5.43288889-50.51619555 44.31985778-110.56355555 58.90275556-136.86897777 15.63079111-28.30791111 39.26812445-47.65582222 53.56657777-56.99697778 24.87523555-16.29752889 63.76334222-1.81020445 63.76334223-1.81020445zM728.19370667 598.85226667l-138.29916445-49.84832c-26.30542222 41.84064-26.78215111 41.55619555-41.46062222 81.30104888-13.81944889 37.36234667-25.16195555 91.21336889 22.58830222 122.7628089 41.27175111 27.25774222 93.78702222 4.00270222 111.61144889-20.68252445 22.30272-30.88270222 29.54808889-78.53852445 36.69560889-97.21969778 6.86307555-17.92 8.86328889-36.31331555 8.86328889-36.31331555z" p-id="664"></path></svg>