<?xml version="1.0" standalone="no"?><!DOCTYPE svg PUBLIC "-//W3C//DTD SVG 1.1//EN" "http://www.w3.org/Graphics/SVG/1.1/DTD/svg11.dtd"><svg t="1536634833952" class="icon" style="" viewBox="0 0 1024 1024" version="1.1" xmlns="http://www.w3.org/2000/svg" p-id="995" xmlns:xlink="http://www.w3.org/1999/xlink" width="200" height="200"><defs><style type="text/css"></style></defs><path d="M954.182 488.727c-2.327 0 2.327 0 0 0zM814.545 1024c4.655 0 4.655 0 0 0zM1024 439.855c0-18.619-9.31-30.255-23.273-44.219L570.182 25.6S537.6 0 512 0c-23.273 0-62.836 30.255-62.836 30.255L23.273 395.636C4.655 409.6 0 418.91 0 439.855c0 23.272 0 48.872 69.818 48.872h69.818V930.91c0 60.51 34.91 93.091 69.819 93.091h256V791.273c0-51.2 41.89-93.091 93.09-93.091s93.091 41.89 93.091 93.09V1024h162.91c39.563 0 69.818-58.182 69.818-93.09V488.726h69.818c67.49 0 69.818-23.272 69.818-48.872z" p-id="996"></path></svg>