<?xml version="1.0" standalone="no"?><!DOCTYPE svg PUBLIC "-//W3C//DTD SVG 1.1//EN" "http://www.w3.org/Graphics/SVG/1.1/DTD/svg11.dtd"><svg t="1536138519121" class="icon" style="" viewBox="0 0 1024 1024" version="1.1" xmlns="http://www.w3.org/2000/svg" p-id="627" xmlns:xlink="http://www.w3.org/1999/xlink" width="200" height="200"><defs><style type="text/css"></style></defs><path d="M512 69.62062222c-22.44835555 0-44.90808889 4.22115555-61.96337778 12.75448889L88.81493333 262.99733333c-34.13333333 17.06666667-34.13333333 44.91946667 0 61.96337778l361.18755556 180.6336c17.12355555 8.52195555 39.58328889 12.75448889 62.03164444 12.75448889s44.91946667-4.23253333 61.96337778-12.75448889L935.25333333 324.96071111c34.13333333-17.06666667 34.13333333-44.90808889 0-61.96337778L573.99751111 82.37511111c-17.06666667-8.53333333-39.50364445-12.75448889-61.96337778-12.75448889z m0 669.42293333c-27.71626667 0-55.37564445-5.54097778-77.48266667-16.56604444L80.63431111 545.5872A34.67946667 34.67946667 0 0 1 111.68426667 483.55555555l353.84888888 176.95857778c24.39395555 12.19697778 68.61937778 12.19697778 93.01333334 0L912.384 483.55555555a34.66808889 34.66808889 0 0 1 30.99306667 62.03164445L589.52817778 722.48888889A177.24302222 177.24302222 0 0 1 512 739.04355555z m0 214.86933334c-27.71626667 0-55.37564445-5.54097778-77.48266667-16.56604444l-353.84888888-176.95857778a34.63395555 34.63395555 0 1 1 30.98168888-61.96337778l353.84888889 176.95857778c24.39395555 12.19697778 68.61937778 12.19697778 93.01333333 0l353.8488889-176.95857778a34.66808889 34.66808889 0 1 1 30.99306666 62.03164444l-353.84888889 176.89031112c-22.08426667 11.09333333-49.74364445 16.56604445-77.50542222 16.56604444z" p-id="628"></path></svg>