<?xml version="1.0" standalone="no"?><!DOCTYPE svg PUBLIC "-//W3C//DTD SVG 1.1//EN" "http://www.w3.org/Graphics/SVG/1.1/DTD/svg11.dtd"><svg t="1536139113088" class="icon" style="" viewBox="0 0 1024 1024" version="1.1" xmlns="http://www.w3.org/2000/svg" p-id="651" xmlns:xlink="http://www.w3.org/1999/xlink" width="200" height="200"><defs><style type="text/css"></style></defs><path d="M792.65549275 65.60881778H345.12592592v891.26411377h447.52956683a111.67577125 111.67577125 0 0 0 111.84810666-111.43547258V177.00909511a111.64178963 111.64178963 0 0 0-111.84810666-111.3990637z m-0.4830246 356.67118459c0.48302459 24.85513482-1.82893985 32.51920592-11.84017067 32.51920593-4.38484385 0.72453689-11.42632297-1.96850725-21.67906607-10.77096297-15.36212385-10.84013985-26.09789155-20.33315082-35.38458549-26.23624533-8.25025422-7.14585125-21.2992-6.31694222-29.48149095 0-10.76974933 6.00746667-26.13187318 19.26272948-34.96952415 26.23624533-10.90810311 9.59616948-18.22628978 10.77096297-20.85015704 10.77096297-10.46027378 0-13.15331792-9.00998637-12.7382566-32.51920593l-0.37986607-271.37001245c0-25.68404385 10.39109689-29.58464948 20.95452919-29.58464947h125.86310162c12.80743348 0 20.98851082 5.86911289 20.98851083 29.58464947l-0.4830246 271.37001245zM121.3605357 177.00788148v668.46477274a111.70975289 111.70975289 0 0 0 111.8820883 111.43425896h55.92405333V65.60881778h-55.92405333a111.67577125 111.67577125 0 0 0-111.8820883 111.3990637z" p-id="652"></path></svg>