<?xml version="1.0" standalone="no"?><!DOCTYPE svg PUBLIC "-//W3C//DTD SVG 1.1//EN" "http://www.w3.org/Graphics/SVG/1.1/DTD/svg11.dtd"><svg t="1540360446244" class="icon" style="" viewBox="0 0 1024 1024" version="1.1" xmlns="http://www.w3.org/2000/svg" p-id="858" xmlns:xlink="http://www.w3.org/1999/xlink" width="200" height="200"><defs><style type="text/css"></style></defs><path d="M1.874 662.09966669a170.05 170.05 0 0 0 170.05 170.049h42.495v-42.518h-42.495c-70.45 0-127.532-57.082-127.532-127.531S101.474 534.56666669 171.924 534.56666669h42.495v-42.495h-42.495A170.027 170.027 0 0 0 1.874 662.09966669zM682.027 407.03666669H341.973a85.036 85.036 0 0 0 0 170.05H682.05a85.036 85.036 0 1 0-0.022-170.05z m0 297.58H341.973a85.013 85.013 0 0 0 0 170.05H682.05a85.059 85.059 0 0 0-0.022-170.05z m0-595.139H341.973a85.013 85.013 0 0 0 0 170.05H682.05a85.036 85.036 0 1 0-0.022-170.05z m170.004 42.496h-42.518v42.518h42.518a127.464 127.464 0 0 1 127.532 127.531A127.441 127.441 0 0 1 852.03 449.53166669h-42.518v42.518h42.518a170.027 170.027 0 1 0 0-340.076z" p-id="859"></path></svg>