<?xml version="1.0" standalone="no"?><!DOCTYPE svg PUBLIC "-//W3C//DTD SVG 1.1//EN" "http://www.w3.org/Graphics/SVG/1.1/DTD/svg11.dtd"><svg t="1536139150961" class="icon" style="" viewBox="0 0 1024 1024" version="1.1" xmlns="http://www.w3.org/2000/svg" p-id="2249" xmlns:xlink="http://www.w3.org/1999/xlink" width="200" height="200"><defs><style type="text/css"></style></defs><path d="M978.106182 312.948364a510.231273 510.231273 0 0 0-269.265455-272.011637 505.018182 505.018182 0 0 0-393.821091 0 505.134545 505.134545 0 0 0-160.814545 109.498182A512.116364 512.116364 0 0 0 6.074182 511.930182a512 512 0 0 0 308.992 470.993454A499.805091 499.805091 0 0 0 512 1023.022545a500.154182 500.154182 0 0 0 357.608727-149.666909c46.405818-46.545455 83.269818-101.701818 108.474182-162.397091a517.166545 517.166545 0 0 0 0.023273-398.010181z m-266.263273 2.490181c39.284364 0 71.284364 32.395636 71.284364 72.308364 0 39.726545-32 72.122182-71.284364 72.122182-39.400727 0-71.540364-32.395636-71.540364-72.122182 0-39.936 32.139636-72.308364 71.540364-72.308364z m-399.592727-1.349818c39.424 0 71.563636 32.395636 71.563636 72.192S351.674182 458.472727 312.250182 458.472727a71.517091 71.517091 0 0 1-71.354182-72.308363c0.023273-39.749818 31.953455-72.075636 71.354182-72.075637z m465.454545 357.678546a326.981818 326.981818 0 0 1-114.269091 96.791272 334.801455 334.801455 0 0 1-302.987636 0 326.283636 326.283636 0 0 1-114.106182-96.721454 36.212364 36.212364 0 0 1 7.284364-50.455273 36.398545 36.398545 0 0 1 50.152727 7.540364c47.848727 64.907636 125.765818 103.563636 208.244364 103.563636 82.478545 0 160.418909-38.656 208.337454-103.68a36.375273 36.375273 0 0 1 50.059637-7.400727c15.685818 12.008727 18.920727 34.373818 7.284363 50.362182z" p-id="2250"></path></svg>