<?xml version="1.0" standalone="no"?><!DOCTYPE svg PUBLIC "-//W3C//DTD SVG 1.1//EN" "http://www.w3.org/Graphics/SVG/1.1/DTD/svg11.dtd"><svg t="1536139968905" class="icon" style="" viewBox="0 0 1024 1024" version="1.1" xmlns="http://www.w3.org/2000/svg" p-id="830" xmlns:xlink="http://www.w3.org/1999/xlink" width="200" height="200"><defs><style type="text/css"></style></defs><path d="M57.59051851 299.37208889c-10.67994075 0-19.29671111-8.61677037-19.2967111-19.29671111V72.30198518c0-10.67994075 8.61677037-19.29671111 19.2967111-19.2967111h202.06933334c10.67994075 0 19.29671111 8.61677037 19.29671111 19.2967111s-8.61677037 19.29671111-19.29671111 19.29671112H76.88722963v188.47668148c0 10.67994075-8.61677037 19.29671111-19.29671112 19.29671111z m918.96035557 0c-10.67994075 0-19.29671111-8.61677037-19.29671112-19.29671111V91.5986963H755.42755555c-10.67994075 0-19.29671111-8.61677037-19.29671111-19.29671112s8.61677037-19.29671111 19.29671111-19.2967111h221.12331853c10.67994075 0 19.29671111 8.61677037 19.2967111 19.2967111v207.7733926c0 10.67994075-8.61677037 19.29671111-19.2967111 19.29671111z m-716.89102223 661.42814814H57.59051851c-5.09724445 0-10.07312592-2.06317037-13.71401481-5.58269628-3.64088889-3.64088889-5.70405925-8.49540741-5.58269629-13.71401483V741.01191111c0-10.67994075 8.61677037-19.29671111 19.2967111-19.29671111s19.29671111 8.61677037 19.29671112 19.29671111V922.20681482h182.77262222c10.67994075 0 19.29671111 8.61677037 19.29671111 19.2967111s-8.61677037 19.29671111-19.29671111 19.29671111z m716.89102223 0H755.42755555c-10.67994075 0-19.29671111-8.61677037-19.29671111-19.29671111S744.74761481 922.20681482 755.42755555 922.20681482h201.82660741V741.01191111c0-10.67994075 8.61677037-19.29671111 19.29671112-19.29671111s19.29671111 8.61677037 19.2967111 19.29671111v200.49161481c0 10.67994075-8.61677037 19.29671111-19.2967111 19.29671111zM426.16983703 557.99656297c-59.34648889-36.16616297-93.57084445-86.89588148-95.63401481-156.80094815-1.45635555-49.03063703 15.17037037-91.50767408 48.90927408-126.8242963 74.03140741-77.55093333 192.11757037-75.60912592 264.69262221 2.79134815 76.82275555 83.01226667 55.58423703 227.0701037-49.51608888 281.07662222 5.09724445 2.18453333 9.70903703 4.2477037 14.32082962 6.31087408C681.51751111 595.74044445 731.64041481 648.41197037 757.85481481 723.05019259c5.94678518 16.99081482 8.49540741 35.19525925 12.25765927 52.91425186 0.60681482 3.03407408 0.24272592 6.5536-0.60681483 9.58767407-1.94180741 7.76722963-7.40314075 11.77220741-14.80628147 11.52948148-7.88859259-0.24272592-13.59265185-5.09724445-15.17037037-12.74311111-3.03407408-14.44219259-4.73315555-29.24847408-9.34494816-43.08385186-29.4912-87.86678518-88.71632592-143.57238518-180.58808889-159.95638518-78.6432-14.0781037-147.09191111 8.73813333-203.76841481 65.41463704-36.77297778 36.77297778-57.40468148 81.67727408-64.2010074 133.01380741-1.33499259 9.70903703-5.21860741 15.17037037-12.37902223 16.99081481-10.8013037 2.66998518-20.14625185-5.5826963-19.05398518-16.99081481 3.88361482-41.14204445 17.23354075-79.12865185 39.68568889-113.83845927 30.34074075-46.96746667 71.60414815-80.9490963 123.30477037-102.18761481 3.2768-1.33499259 6.5536-2.91271111 9.8304-4.36906667 0.84954075-0.24272592 1.45635555-0.60681482 3.15543703-1.33499258z m84.10453333-11.89357038c81.31318518 0 146.84918518-65.536 148.06281482-145.27146667 1.33499259-86.77451852-67.47780741-149.7618963-144.30056296-151.7037037-80.34228148-2.06317037-150.61143703 62.01647408-151.94642964 146.12100741-1.21362963 82.52681482 64.68645925 150.85416297 148.18417778 150.85416296z" p-id="831"></path><path d="M631.51597036 397.55472592c0 60.43875555-49.27336297 109.59075555-110.0762074 109.59075556v-27.42802963c45.51111111 0 82.52681482-36.77297778 82.52681482-82.16272593 0-45.38974815-36.89434075-82.16272592-82.52681482-82.16272592v-27.42802963c60.80284445 0.12136297 110.07620741 49.152 110.0762074 109.59075555z" p-id="832"></path></svg>