<?xml version="1.0" standalone="no"?><!DOCTYPE svg PUBLIC "-//W3C//DTD SVG 1.1//EN" "http://www.w3.org/Graphics/SVG/1.1/DTD/svg11.dtd"><svg t="1536138936888" class="icon" style="" viewBox="0 0 1024 1024" version="1.1" xmlns="http://www.w3.org/2000/svg" p-id="3500" xmlns:xlink="http://www.w3.org/1999/xlink" width="200" height="200"><defs><style type="text/css"></style></defs><path d="M711.493 312.101c51.305 51.326 94.014 106.169 127.175 161.206l24.157-36.803c-33.074-52.521-74.226-104.339-122.823-152.913C569.353 112.916 358.822 33.956 217.171 74.535l32.774 32.774c126.32-23.799 309.467 52.734 461.548 204.792z m62.159-204.791l32.751-32.774c-71.285-20.408-160.011-10.557-252.344 26.034l42.607 26.019c64.458-22.008 125.448-28.981 176.986-19.279zM212.266 212.262c31.518-31.515 31.518-82.605 0-114.099-31.517-31.517-82.605-31.517-114.099 0-31.517 31.494-31.517 82.584 0 114.099 31.494 31.518 82.581 31.518 114.099 0z m-85.569-85.589c15.735-15.738 41.281-15.738 57.039 0 15.759 15.756 15.759 41.301 0 57.063-15.759 15.756-41.304 15.756-57.039 0-15.759-15.762-15.759-41.307 0-57.063z m453.827 740.222c54.782-33.755 108.877-76.295 159.478-126.896 170.673-170.649 249.612-381.18 209.056-522.831l-32.774 32.777c23.797 126.317-52.734 309.464-204.791 461.545-53.01 53.01-109.793 96.83-166.644 130.437l35.675 24.968z m230.804-654.633c31.518 31.517 82.587 31.517 114.105 0 31.515-31.515 31.515-82.605 0-114.099-31.517-31.517-82.587-31.517-114.105 0-31.515 31.495-31.515 82.585 0 114.099z m28.533-85.589c15.756-15.738 41.301-15.738 57.039 0 15.759 15.756 15.759 41.301 0 57.063-15.738 15.756-41.283 15.756-57.039 0-15.759-15.762-15.759-41.307 0-57.063z m55.971 466.58c22.924 65.738 30.325 127.961 20.451 180.395l32.774 32.754c20.512-71.649 10.447-160.91-26.589-253.728l-26.636 40.579zM249.945 916.28l-32.774 32.754c70.773 20.277 158.734 10.726 250.319-25.205l-39.046-27.337c-65.034 22.389-126.574 29.577-178.499 19.788z m62.159-204.791c-52.033-52.05-95.21-107.725-128.583-163.508l-22.645 39.256c33.054 52.475 74.162 104.231 122.719 152.761C454.247 910.671 664.772 989.61 806.403 949.034l-32.751-32.754c-126.343 23.797-309.47-52.731-461.548-204.791zM125.885 424.882c-21.452-63.716-28.189-123.955-18.572-174.938l-32.777-32.777c-20.384 71.178-10.595 159.734 25.848 251.896l25.501-44.181z m685.443 386.442c-31.515 31.517-31.515 82.587 0 114.105 31.518 31.515 82.587 31.515 114.105 0 31.515-31.518 31.515-82.587 0-114.105-31.518-31.514-82.587-31.514-114.105 0z m85.572 85.572c-15.738 15.759-41.283 15.759-57.039 0-15.759-15.735-15.759-41.281 0-57.039 15.756-15.756 41.301-15.756 57.039 0 15.759 15.759 15.759 41.304 0 57.039z m-684.634-85.572c-31.517-31.515-82.605-31.515-114.099 0-31.517 31.517-31.517 82.587 0 114.105 31.494 31.515 82.581 31.515 114.099 0 31.517-31.517 31.517-82.587 0-114.105z m-28.53 85.572c-15.759 15.759-41.304 15.759-57.039 0-15.759-15.735-15.759-41.281 0-57.039 15.735-15.756 41.281-15.756 57.039 0 15.759 15.759 15.759 41.304 0 57.039z m-76.423-123.248c-23.8-126.343 52.734-309.47 204.791-461.548 50.793-50.773 105.04-93.142 159.499-126.149l-38.104-23.285c-51.497 32.751-102.267 73.263-149.904 120.903C112.919 454.244 33.96 664.768 74.536 806.402l32.777-32.754zM453.66 667.346c9.588 0 17.408-7.82 17.408-17.408V370.661a17.363 17.363 0 0 0-10.845-16.105 17.169 17.169 0 0 0-18.991 3.956l-99.236 101.657c-6.749 6.889-6.61 17.874 0.279 24.576 6.889 6.749 17.874 6.563 24.576-0.279l69.4-71.076v236.547c0 9.589 7.82 17.409 17.409 17.409z m116.272-311.114c-9.589 0-17.408 7.82-17.408 17.408v279.276a17.363 17.363 0 0 0 10.845 16.105 17.193 17.193 0 0 0 6.563 1.303c4.608 0 9.123-1.815 12.428-5.26l99.236-101.657c6.749-6.889 6.61-17.874-0.279-24.576-6.889-6.749-17.874-6.563-24.576 0.279l-69.4 71.076V373.64c-0.001-9.588-7.821-17.408-17.409-17.408z" fill="" p-id="3501"></path></svg>