<?xml version="1.0" standalone="no"?><!DOCTYPE svg PUBLIC "-//W3C//DTD SVG 1.1//EN" "http://www.w3.org/Graphics/SVG/1.1/DTD/svg11.dtd"><svg t="1536730619039" class="icon" style="" viewBox="0 0 1024 1024" version="1.1" xmlns="http://www.w3.org/2000/svg" p-id="789" xmlns:xlink="http://www.w3.org/1999/xlink" width="200" height="200"><defs><style type="text/css"></style></defs><path d="M955.85833718 634.10570431c-6.05843911-2.67969422-112.43064889-49.05005511-231.85180443-74.13820683A213.59881482 213.59881482 0 0 0 822.68918518 380.07845926V252.96774638C822.68918518 135.1388729 727.0357523 39.29125926 609.4398957 39.29125926a212.58907497 212.58907497 0 0 0-159.69424118 72.46825245 212.89976415 212.89976415 0 0 0-53.6327206 141.20823467V380.07845926c0 71.76920178 35.61274785 135.266304 89.94451911 174.02477985-131.26618075 22.68031052-255.7748717 77.01208178-261.60029392 79.61410371C189.07742815 648.20322608 162.47466667 688.01027793 162.47466667 726.34155615v153.40278519h0.66021451a79.53643141 79.53643141 0 0 0 78.83738074 69.12834371h695.40006875c34.79718875 0 65.90494341-22.75798282 77.43927941-56.66194015l2.05831584-6.05843912v-159.81074963c0-38.60313125-26.71926992-78.48785541-61.01158874-92.23585184" p-id="790"></path><path d="M281.93465837 546.45251793c42.44790992-13.24312652 62.56503467-20.66083082 62.56503466-20.66083082s27.49599289-12.11687822 20.23363319-36.3894708c-17.01023289-32.38934755-29.12711111-57.47749925-29.12711111-152.1211923V214.28694282s7.30119585-59.8465043 30.33103171-65.51658192c1.86413511-1.98064355 2.1748243-4.89335467 1.35926518-8.15559112a38.75847585 38.75847585 0 0 0-35.69042015-23.69005037 161.20885097 161.20885097 0 0 0-160.97583407 161.13117867v102.25557807c0 39.72937955 14.99075318 75.69165275 38.91382044 103.809024-76.11885037 23.41819733-142.64517215 60.31253808-154.83972267 67.30304475C26.97534578 564.55016298 7.13007408 595.96860682 7.13007408 627.23170608v111.53741748a38.83614815 38.83614815 0 0 0 38.83614814 38.83614815 38.44778667 38.44778667 0 0 0 37.98175289-34.56417185c0.15534459-1.43693748 0.85439525-2.75736652 0.85439526-4.2719763v-17.78695585c3.10689185-36.7778323 16.89372445-103.53717097 74.02169838-134.80027023 8.73813333-3.88361482 18.05880889-7.68955733 27.57366517-11.4566637a3615.25703111 3615.25703111 0 0 0 95.53692445-28.27271585" p-id="791"></path></svg>