<?xml version="1.0" standalone="no"?><!DOCTYPE svg PUBLIC "-//W3C//DTD SVG 1.1//EN" "http://www.w3.org/Graphics/SVG/1.1/DTD/svg11.dtd"><svg t="1536142142883" class="icon" style="" viewBox="0 0 1029 1024" version="1.1" xmlns="http://www.w3.org/2000/svg" p-id="12533" xmlns:xlink="http://www.w3.org/1999/xlink" width="200.9765625" height="200"><defs><style type="text/css"></style></defs><path d="M939.52 595.130182C1008.896 527.825455 1029.655273 500.782545 1029.655273 409.437091v-173.195636C1029.655273 72.936727 990.184727 0 793.460364 0h-162.210909c-99.770182 0-157.998545 57.437091-238.545455 136.843636L35.956364 499.246545c-22.853818 22.085818-35.979636 54.085818-35.979637 87.645091 0 33.326545 12.939636 65.024 35.490909 86.900364l323.584 314.903273c44.776727 43.426909 131.630545 43.543273 176.616728-0.116364l403.851636-393.448727zM745.728 190.138182a100.747636 100.747636 0 0 1 100.631273 100.608 100.770909 100.770909 0 0 1-100.631273 100.631273 100.747636 100.747636 0 0 1-100.631273-100.631273A100.770909 100.770909 0 0 1 745.728 190.138182z" p-id="12534"></path></svg>