<?xml version="1.0" standalone="no"?><!DOCTYPE svg PUBLIC "-//W3C//DTD SVG 1.1//EN" "http://www.w3.org/Graphics/SVG/1.1/DTD/svg11.dtd"><svg t="1536635861775" class="icon" style="" viewBox="0 0 1024 1024" version="1.1" xmlns="http://www.w3.org/2000/svg" p-id="772" xmlns:xlink="http://www.w3.org/1999/xlink" width="200" height="200"><defs><style type="text/css"></style></defs><path d="M882.66666667 85.33333333h-741.33333334c-56.46933333 0-102.25066667 46.31466667-102.25066666 103.46666667v646.4c0 57.12 45.78133333 103.46666667 102.25066666 103.46666667h741.33333334c56.46933333 0 102.25066667-46.31466667 102.25066666-103.46666667V188.8c0-57.12-45.78133333-103.46666667-102.25066666-103.46666667zM701.64266667 554.09066667L454.53866667 712.43733333a55.744 55.744 0 0 1-55.872 2.944c-18.29333333-9.056-28.896-25.6-28.896-45.01333333V353.65333333c0-19.41333333 10.57066667-35.98933333 28.85333333-45.04533333a55.82933333 55.82933333 0 0 1 55.88266667 2.944l247.104 158.34666667c15.28533333 9.84533333 23.65866667 24.71466667 23.65866666 42.112s-8.37333333 32.26666667-23.616 42.08z" p-id="773"></path></svg>