<?xml version="1.0" standalone="no"?><!DOCTYPE svg PUBLIC "-//W3C//DTD SVG 1.1//EN" "http://www.w3.org/Graphics/SVG/1.1/DTD/svg11.dtd"><svg t="1536138781613" class="icon" style="" viewBox="0 0 1024 1024" version="1.1" xmlns="http://www.w3.org/2000/svg" p-id="639" xmlns:xlink="http://www.w3.org/1999/xlink" width="200" height="200"><defs><style type="text/css"></style></defs><path d="M666.6546037 512c0-42.69128311-15.10337802-79.13900816-45.30883952-109.34576418-30.20675603-30.20546149-66.65577561-45.3088395-109.34576418-45.30883952-42.69128311 0-79.13900816 15.10337802-109.34576418 45.30883952-30.20546149 30.20675603-45.3088395 66.65577561-45.30883952 109.34576418 0 42.69128311 15.10337802 79.13900816 45.30883952 109.34576418 30.20675603 30.20546149 66.65577561 45.3088395 109.34576418 45.30883952 42.69128311 0 79.13900816-15.10337802 109.34576418-45.30883952 30.20546149-30.20675603 45.3088395-66.65577561 45.30883952-109.34576418zM975.96251653 446.15072174v134.11416493c0 4.8338059-1.6104056 9.4643693-4.83251136 13.89557381-3.2234003 4.42990996-7.24941431 7.04746635-12.08322022 7.85266915L847.28541235 618.92886124c-7.65201573 21.74824297-15.50597941 40.07372674-23.56059654 54.97515678 14.09622723 20.13654282 35.64252223 47.92639589 64.64017951 83.36826468 4.02730857 4.83251137 6.04161011 9.8669707 6.04161011 15.10208349 0 5.23640731-1.81235358 9.86826525-5.43706074 13.89557381-10.87412148 14.9001355-30.81001086 36.64837847-59.80766816 65.24472889-28.99765728 28.59505588-47.92639589 42.89193655-56.78751034 42.89193654-4.83251137 0-10.06762414-1.81235358-15.70663286-5.43706074l-83.36826469-65.24472888a344.68893835 344.68893835 0 0 1-54.97515678 22.95604716c-6.44291698 54.7732088-12.28387365 92.22937917-17.51898643 112.36592198-2.81950435 11.27672288-10.06891867 16.91573159-21.74824296 16.91573158H444.94291753c-5.63900871 0-10.57249406-1.71137959-14.80045606-5.13543331-4.22925653-3.4227592-6.5451855-7.75298971-6.9477869-12.98810247l-16.9157316-111.15811778c-19.73394142-6.44291698-37.85747722-13.89427927-54.37060741-22.3514978l-85.18061826 64.64017952c-4.02601403 3.62470717-9.0617679 5.43706075-15.10208349 5.43706074-5.63900871 0-10.67346805-2.21495499-15.103378-6.64486495-50.74590025-45.91338889-83.97281406-79.74355753-99.67944692-101.49180048-2.81950435-4.02730857-4.22925653-8.66046103-4.22925654-13.89557381 0-4.83251137 1.61170015-9.46307476 4.83380591-13.89427928 6.04031557-8.45721853 16.31118222-21.84921695 30.81001086-40.17340618 14.49882864-18.32548377 25.37295013-32.52268499 32.62236445-42.59030914-10.87412148-20.13783735-19.13068658-40.07372674-24.76969529-59.80766814l-110.55356839-16.31118222c-5.23511277-0.80649733-9.46307476-3.32307973-12.68647506-7.55233628-3.22210576-4.22796199-4.83251137-8.96079392-4.83251136-14.19590669v-134.11416493c0-4.8338059 1.6104056-9.4643693 4.83251136-13.89557381 3.2234003-4.42990996 7.04876089-7.04746635 11.47867086-7.85266915L176.71458765 405.07113876c5.63900871-18.52613721 13.49167787-37.0522744 23.56059654-55.57841161-16.10923425-22.95734171-37.65682379-50.74590025-64.64017951-83.3682647-4.02730857-4.8338059-6.04161011-9.66631728-6.04161011-14.49882864 0-4.02730857 1.81235358-8.66046103 5.43706074-13.89557381 10.47152009-14.49882864 30.30643547-36.14609762 59.50604072-64.94180693 29.19831072-28.79700385 48.22802331-43.19485851 57.08913778-43.1948585 5.23511277 0 10.47152009 2.01430155 15.70663286 6.04161011l83.36826469 64.64017951a344.68764382 344.68764382 0 0 1 54.97515678-22.95604716c6.44291698-54.7732088 12.28387365-92.22937917 17.51898643-112.36592198 2.81950435-11.27672288 10.06891867-16.91573159 21.74824296-16.91573158h134.11416494c5.63900871 0 10.57249406 1.71137959 14.80045606 5.13543331 4.22925653 3.4227592 6.5451855 7.75298971 6.9477869 12.98810247l16.9157316 111.15811778c19.73394142 6.44291698 37.85747722 13.89427927 54.37060741 22.3514978l85.78387311-64.64017952c3.62470717-3.62470717 8.45851307-5.43706075 14.49882864-5.43706074 5.23640731 0 10.27086665 2.01430155 15.103378 6.04161011 51.95370445 47.92639589 85.18061827 82.15916595 99.67944692 102.69960471 2.81950435 3.22210576 4.22925653 7.65201573 4.22925654 13.29102442 0 4.83251137-1.61170015 9.46307476-4.83380591 13.89427928-6.04031557 8.45721853-16.31118222 21.84921695-30.81001086 40.17340618-14.49882864 18.32548377-25.37295013 32.52268499-32.62236445 42.59030914 10.47281461 20.13783735 18.72808517 39.87177876 24.76969529 59.20441331l110.55356839 16.91443705c5.23511277 0.80649733 9.46307476 3.32307973 12.68647506 7.55233628 3.22210576 4.22796199 4.83251137 8.96079392 4.83251136 14.19590669z" p-id="640"></path></svg>