<?xml version="1.0" standalone="no"?><!DOCTYPE svg PUBLIC "-//W3C//DTD SVG 1.1//EN" "http://www.w3.org/Graphics/SVG/1.1/DTD/svg11.dtd"><svg t="1536139723080" class="icon" style="" viewBox="0 0 1024 1024" version="1.1" xmlns="http://www.w3.org/2000/svg" p-id="687" xmlns:xlink="http://www.w3.org/1999/xlink" width="200" height="200"><defs><style type="text/css"></style></defs><path d="M701.79612445 592.80042667c-0.80782222 4.73884445 8.74951111 106.73834667-164.09486223 187.88238222-20.47658667 9.62218667-29.68917333 34.91612445-20.60174222 56.51683556 6.73223111 15.98919111 21.53927111 25.45208889 37.07904 25.45208888 5.51822222 0 11.08650667-1.1776 16.44999111-3.69095111 140.90353778-66.14584889 188.99399111-146.61404445 204.55879111-202.35832889 49.07576889 23.76590222 123.1872 74.77475555 135.96672 169.26037334 3.16416 23.41774222 23.73973333 39.67544889 45.88885333 36.36110222 22.1696-3.36782222 37.56145778-25.05159111 34.39729778-48.47274667C973.37571555 680.18062222 875.05351111 610.89905778 809.75644445 579.09248c-8.77568-23.16970667-13.45422222-42.22634667-15.68426667-57.96977778 54.42332445 29.13393778 125.40928 43.14112 199.89959111 3.77856 20.02261333-10.56085333 28.14407111-36.28373333 18.11911111-57.45436444-9.99651555-21.15015111-34.37112889-29.73013333-54.38919111-19.14538667-99.16529778 52.40376889-182.40967111-46.97315555-185.80252444-51.08849778-9.23761778-11.41532445-23.45870222-16.94947555-37.51025778-14.46343111-60.2112 10.61432889-174.03221333 64.00341333-174.05952 190.30471111 0 23.63278222 18.14755555 42.82936889 40.54698666 42.82936889 22.40056889 0 40.54926222-19.16586667 40.54926222-42.83050667 0-43.8272 27.05749333-70.36700445 53.88629334-85.90677333-1.16849778 24.68181333 1.44270222 54.24128 10.72696889 88.97877333 0 0-2.78072889 8.11690667-4.24163556 16.67527112z m149.55861333-338.98040889c0 47.69905778-36.62051555 86.38236445-81.77664 86.38236444-45.15271111 0-81.77777778-38.68444445-81.77777778-86.38236444 0-47.69905778 36.62506667-86.38236445 81.77777778-86.38236445 45.15612445 0 81.77664 38.68444445 81.77664 86.38236445zM192.19342222 592.80042667c-0.80782222 4.73884445 8.74951111 106.73834667-164.096 187.88238222-20.47544889 9.62218667-29.68803555 34.91612445-20.60174222 56.51683556 6.73336889 15.98919111 21.53927111 25.45208889 37.08017778 25.45208888 5.51708445 0 11.08650667-1.1776 16.44999111-3.69095111 140.90353778-66.14584889 188.99399111-146.61404445 204.55879111-202.35832889 49.07690667 23.76590222 123.1872 74.77475555 135.96672 169.26037334 3.16416 23.41774222 23.73859555 39.67544889 45.88885333 36.36110222 22.1696-3.36782222 37.56145778-25.05159111 34.39729778-48.47274667-18.06449778-133.57056-116.38784-202.85212445-181.68490666-234.65870222-8.77568-23.16970667-13.45422222-42.22634667-15.68426667-57.96977778 54.42332445 29.13393778 125.41041778 43.14112 199.89959111 3.77856 20.02261333-10.56085333 28.14407111-36.28373333 18.11911111-57.45436444-9.99651555-21.15015111-34.37112889-29.73013333-54.38919111-19.14538667-99.16529778 52.40376889-182.41080889-46.97315555-185.80366222-51.08849778-9.23648-11.41532445-23.45870222-16.94947555-37.50912-14.46343111-60.2112 10.61432889-174.03335111 64.00341333-174.06065778 190.30471111 0 23.63278222 18.14755555 42.82936889 40.54812444 42.82936889 22.39943111 0 40.54812445-19.16586667 40.54812445-42.83050667 0-43.8272 27.05976889-70.36700445 53.88743111-85.90677333-1.16963555 24.68181333 1.44270222 54.24128 10.72696889 88.97877333 0 0-2.78186667 8.11690667-4.24163556 16.67527112z m149.55861333-338.98040889c0 47.69905778-36.62051555 86.38236445-81.77664 86.38236444-45.15271111 0-81.77891555-38.68444445-81.77891555-86.38236444 0-47.69905778 36.62506667-86.38236445 81.77891555-86.38236445 45.15612445 0 81.77664 38.68444445 81.77664 86.38236445z" p-id="688"></path></svg>