<?xml version="1.0" standalone="no"?><!DOCTYPE svg PUBLIC "-//W3C//DTD SVG 1.1//EN" "http://www.w3.org/Graphics/SVG/1.1/DTD/svg11.dtd"><svg t="1536139257545" class="icon" style="" viewBox="0 0 1024 1024" version="1.1" xmlns="http://www.w3.org/2000/svg" p-id="4030" xmlns:xlink="http://www.w3.org/1999/xlink" width="200" height="200"><defs><style type="text/css"></style></defs><path d="M671.402667 190.190933 671.402667 478.549333l0 288.3584c0 20.980622-27.500089 29.377422-38.820978 11.719111-64.773689-100.955022-128.750933-153.895822-353.427911-165.114311l70.929067 230.570667-106.006756 0-71.736889-233.187556C102.058667 607.675733 45.966222 549.626311 45.966222 478.549333c0-73.147733 59.357867-132.676267 132.5056-132.676267 308.110222 0 380.541156-52.747378 454.098489-167.412622C643.902578 160.813511 671.402667 169.210311 671.402667 190.190933zM853.879467 506.493156c0 55.261867-18.591289 106.018133-46.569244 144.418133 0 0-11.207111 15.348622-29.809778 15.348622-19.1488 0-36.056178-16.0768-36.056178-36.2496 0-11.912533 7.133867-21.595022 7.133867-21.595022 13.312-19.467378 32.813511-49.368178 32.813511-101.922133s-19.501511-82.466133-32.813511-101.933511c0 0-7.133867-9.682489-7.133867-21.595022 0-20.1728 16.907378-36.2496 36.056178-36.2496 18.602667 0 29.809778 15.348622 29.809778 15.348622C835.299556 400.475022 853.879467 451.231289 853.879467 506.493156zM826.971022 297.301333c0 0-16.361244-11.696356-16.361244-30.025956 0-20.627911 16.941511-36.386133 36.2496-36.386133 12.413156 0 23.847822 8.749511 23.847822 8.749511 43.815822 32.768 113.891556 116.736 113.891556 266.8544S914.511644 740.579556 870.695822 773.347556c0 0-11.434667 8.749511-23.847822 8.749511-19.296711 0-36.2496-15.758222-36.2496-36.386133 0-18.3296 16.361244-30.025956 16.361244-30.025956 50.9952-37.626311 85.128533-112.833422 85.128533-209.191822S877.954844 334.927644 826.971022 297.301333z" p-id="4031"></path></svg>